<?xml version="1.0" standalone="no"?>
<!DOCTYPE svg PUBLIC "-//W3C//DTD SVG 20010904//EN"
 "http://www.w3.org/TR/2001/REC-SVG-20010904/DTD/svg10.dtd">
<svg version="1.0" xmlns="http://www.w3.org/2000/svg"
 width="1024.000000pt" height="1024.000000pt" viewBox="0 0 1024.000000 1024.000000"
 preserveAspectRatio="xMidYMid meet">

<g transform="translate(0.000000,1024.000000) scale(0.100000,-0.100000)"
fill="#000000" stroke="none">
<path d="M4785 9320 c-978 -81 -1874 -469 -2552 -1103 -708 -662 -1155 -1536
-1284 -2509 -26 -196 -37 -685 -20 -880 66 -740 339 -1471 781 -2088 273 -382
671 -763 1082 -1039 1069 -714 2489 -890 3733 -462 615 212 1245 625 1694
1111 615 666 982 1461 1098 2375 25 201 25 743 0 935 -52 388 -142 736 -279
1075 -64 159 -219 468 -307 615 -278 461 -657 868 -1112 1193 -586 418 -1269
680 -1989 762 -162 19 -687 28 -845 15z m731 -295 c642 -61 1294 -295 1840
-661 569 -382 990 -867 1303 -1503 393 -798 495 -1630 307 -2509 -101 -469
-340 -1003 -634 -1412 -516 -720 -1297 -1270 -2127 -1499 -501 -138 -1123
-176 -1663 -100 -1115 156 -2141 829 -2754 1806 -413 658 -626 1487 -579 2248
61 965 447 1830 1121 2506 91 91 223 212 293 268 594 475 1313 774 2061 856
172 18 635 19 832 0z"/>
<path d="M4835 8473 c-240 -12 -538 -85 -753 -184 -160 -74 -367 -214 -496
-338 -135 -128 -274 -322 -356 -493 -63 -132 -92 -222 -126 -383 -26 -120 -28
-147 -28 -360 1 -191 4 -250 22 -345 28 -153 73 -307 131 -449 27 -64 71 -173
100 -243 105 -256 124 -397 65 -481 -35 -50 -138 -122 -197 -138 -149 -40
-345 17 -458 133 -50 51 -72 94 -94 179 -22 83 -15 272 15 419 25 121 22 196
-8 256 -71 139 -273 175 -438 78 -133 -78 -261 -255 -322 -444 -114 -352 -58
-815 132 -1099 61 -91 193 -225 264 -266 50 -29 64 -45 41 -45 -18 0 -135 -57
-192 -94 -75 -47 -182 -150 -227 -216 -71 -105 -100 -196 -100 -320 0 -103 25
-165 88 -222 71 -64 132 -71 279 -32 94 25 112 27 473 34 344 7 478 16 585 40
34 8 57 6 44 -3 -19 -14 -245 -146 -329 -192 -155 -86 -217 -130 -300 -214
-150 -152 -208 -337 -137 -443 56 -83 133 -102 276 -68 80 19 139 24 361 31
269 8 340 17 468 58 341 111 732 439 1003 841 l64 95 7 -115 c12 -216 57 -429
125 -590 191 -451 543 -726 958 -747 130 -7 199 9 266 60 66 50 94 114 94 212
0 103 -16 135 -141 291 -53 65 -117 151 -142 189 -87 134 -153 303 -187 476
-19 96 -31 395 -18 453 l8 38 33 -50 c93 -143 309 -377 474 -514 149 -123 240
-183 393 -258 443 -218 853 -210 1151 23 106 83 169 168 198 266 21 73 20 116
-5 167 -34 72 -65 84 -211 84 -137 0 -194 8 -343 48 l-100 27 175 6 c142 5
193 11 272 32 313 82 564 295 683 578 38 90 56 167 56 242 0 133 -71 202 -206
200 -63 -1 -81 -6 -185 -56 -203 -96 -357 -135 -580 -143 -74 -3 -155 -2 -179
3 l-44 8 84 32 c385 147 621 507 655 998 12 179 -21 360 -92 513 -34 72 -57
107 -106 156 -87 87 -158 120 -266 125 -74 3 -89 0 -138 -24 -96 -47 -129
-112 -159 -315 -32 -214 -81 -383 -153 -525 -37 -71 -64 -108 -132 -176 -113
-113 -188 -151 -311 -157 -95 -5 -143 6 -201 45 -107 72 -92 192 71 571 108
251 143 350 181 506 59 238 79 456 61 660 -48 550 -285 956 -733 1258 -260
174 -584 282 -923 308 -77 5 -149 9 -160 8 -11 -1 -47 -3 -80 -5z m285 -263
c371 -46 699 -196 948 -434 209 -200 342 -441 399 -724 26 -125 25 -467 -1
-607 -40 -220 -93 -384 -212 -667 -118 -279 -139 -355 -139 -493 0 -97 3 -116
25 -158 67 -133 253 -227 445 -227 160 1 315 54 447 152 208 157 326 407 388
819 33 218 56 257 129 220 132 -68 219 -340 192 -604 -27 -272 -122 -482 -288
-637 -129 -121 -267 -188 -433 -212 -97 -15 -182 -3 -298 41 -122 46 -118 46
-153 11 -40 -39 -34 -69 24 -127 134 -134 434 -247 726 -273 285 -25 524 15
770 131 57 27 108 49 114 49 20 0 -3 -87 -47 -175 -135 -272 -391 -439 -730
-475 -175 -19 -384 12 -533 80 -113 52 -339 217 -536 393 -89 79 -102 87 -138
87 -29 0 -47 -7 -64 -25 -52 -51 -26 -120 101 -271 297 -358 705 -619 1122
-721 83 -20 134 -26 224 -26 132 -1 133 -3 60 -69 -98 -89 -240 -166 -355
-193 -121 -29 -295 -13 -469 41 -102 32 -296 130 -380 191 -244 178 -549 502
-743 788 -95 140 -101 145 -149 145 -106 -1 -134 -89 -143 -455 -13 -565 78
-864 370 -1211 112 -133 135 -180 108 -223 -14 -22 -108 -25 -195 -7 -180 37
-331 121 -457 254 -124 131 -199 269 -256 472 -68 244 -84 371 -89 730 -3 168
-7 315 -10 328 -6 29 -60 62 -102 62 -43 0 -75 -33 -109 -112 -145 -340 -338
-633 -568 -863 -222 -222 -426 -350 -650 -407 -66 -16 -130 -21 -360 -28 -209
-6 -295 -12 -339 -24 -32 -9 -61 -14 -64 -11 -11 10 73 118 143 183 41 38 119
94 181 131 60 35 150 88 201 117 257 151 513 387 727 671 159 211 276 431 260
488 -17 57 -88 88 -145 65 -16 -7 -44 -34 -61 -59 -160 -235 -457 -491 -702
-607 -186 -87 -352 -111 -647 -96 -229 12 -349 4 -474 -29 -131 -36 -143 -36
-155 -3 -27 70 30 198 133 298 125 122 257 173 598 231 255 43 347 63 458 104
271 99 432 288 302 356 -51 26 -81 19 -177 -42 -195 -124 -328 -168 -504 -166
-131 1 -231 26 -356 88 -206 104 -312 251 -390 545 -26 94 -28 121 -28 265 0
173 12 240 61 363 39 97 87 175 154 246 72 78 108 96 144 72 31 -20 31 -25 -1
-194 -48 -250 -34 -465 41 -613 117 -231 503 -382 789 -309 164 42 314 148
370 262 49 99 53 187 20 361 -20 101 -46 175 -131 377 -157 371 -210 614 -200
920 6 176 19 254 69 410 169 529 670 929 1283 1024 109 17 340 20 455 6z"/>
</g>
</svg>
